<?xml version="1.0" encoding="utf-8"?>
<!-- Generator: Adobe Illustrator 22.1.0, SVG Export Plug-In . SVG Version: 6.00 Build 0)  -->
<svg version="1.1" id="Layer_1" xmlns="http://www.w3.org/2000/svg" xmlns:xlink="http://www.w3.org/1999/xlink" x="0px" y="0px"
	 viewBox="0 0 700 162" style="enable-background:new 0 0 700 162;" xml:space="preserve">
<style type="text/css">
	.st0{fill:url(#SVGID_1_);}
	.st1{fill:#FFFFFF;}
	.st2{font-family:'BauhausBuglerW00-Medium';}
	.st3{font-size:107.6861px;}
</style>
<g>
	<linearGradient id="SVGID_1_" gradientUnits="userSpaceOnUse" x1="-9.094947e-13" y1="83" x2="189.833" y2="83">
		<stop  offset="0" style="stop-color:#0094F4;stop-opacity:0.6"/>
		<stop  offset="1" style="stop-color:#0060E3;stop-opacity:0.8"/>
	</linearGradient>
	<path class="st0" d="M189.2,12.9c-0.3-0.4-0.8-0.6-1.4-0.6h-34.9c-1.6,0-2.4,1.7-1.7,3.1c3.5,6.9,7.1,13.8,10.6,20.7h-22
		c-3.3-6.6-6.7-13.2-10.1-19.7c-0.5-1-1-2-1.5-3c-0.3-0.6-1.1-1-1.7-1h-20.7c-1.6,0-2.4,1.7-1.7,3.1c3.5,6.9,7.1,13.8,10.6,20.7h-20
		c-3.4-6.6-6.7-13.2-10.1-19.7c-0.5-1-1-2-1.5-3c-0.3-0.6-1.1-1-1.7-1H58.4c-1.6,0-2.4,1.7-1.7,3.1c3.5,6.9,7.1,13.8,10.6,20.7h-22
		c-3.3-6.6-6.7-13.2-10.1-19.7c-0.5-1-1-2-1.5-3c-0.3-0.6-1.1-1-1.7-1h-12c-1.7,0-3.4,0-5.2,0c-3.3,0-6.5,1.1-9.1,3.1
		C1.8,18.4,0,22.8,0,27.4v109.5c0,1.9,0,3.8,0.4,5.6c1.5,6.5,7.6,11.1,14.2,11.1c3.1,0,6.2,0,9.4,0h150.7c3.8,0,7.3-1.1,10.3-3.7
		c3.4-2.9,4.9-7.2,4.9-11.5V14.3C189.8,13.7,189.6,13.2,189.2,12.9L189.2,12.9z M116.4,99.1c-0.4,0.3-0.8,0.5-1.2,0.8
		c-4.8,3.1-9.5,6.1-14.3,9.2c-5.8,3.7-11.5,7.5-17.3,11.2c-1.5,1-3,2-4.5,3c-0.7,0.5-1.6,0.9-2.4,1c-0.1,0-0.2,0-0.4,0.1
		c-0.5,0-0.9,0-1.4-0.1c-2.2-0.5-3.9-2.4-4.1-4.7c0-0.1,0-0.2,0-0.3c0-0.1,0-0.1,0-0.2V81.7c0-3.8-0.1-7.7,0-11.5
		c0-0.6,0.1-1.1,0.3-1.6c0.1-0.3,0.3-0.6,0.4-0.9c0-0.1,0.1-0.1,0.1-0.2c0.2-0.3,0.4-0.5,0.6-0.8c0.8-0.9,2-1.4,3.2-1.6
		c0.3,0,0.7,0,1,0c0.8,0.1,1.6,0.4,2.4,0.8c1.4,0.9,2.8,1.8,4.2,2.7c2.8,1.8,5.7,3.7,8.5,5.5c2.8,2,5.7,3.7,8.5,5.6
		c4.9,3.2,9.8,6.4,14.7,9.6c0.9,0.6,1.7,1.1,2.4,1.8l0.1,0.1c0.2,0.2,0.3,0.4,0.5,0.6c0.1,0.2,0.2,0.3,0.3,0.5
		c0.1,0.2,0.2,0.4,0.2,0.5c0,0.1,0.1,0.3,0.1,0.4c0,0.1,0.1,0.3,0.1,0.4c0,0.1,0,0.3,0.1,0.5C119.1,96.2,118.1,98,116.4,99.1
		L116.4,99.1z"/>
	<text transform="matrix(1 0 0 1 223.8567 115.4138)" class="st1 st2 st3">MOVIATIC</text>
</g>
</svg>
